<svg version="1" xmlns="http://www.w3.org/2000/svg" width="1066.667" height="1066.667" viewBox="0 0 800.000000 800.000000"><path d="M0 400v400h800V0H0v400zm325.2-91.3l74.8 74.8 75-75 75-75 75 75 75 75 33.5-33.5 33.5-33.5 8.2 8.3 8.3 8.2-41.8 41.8-41.7 41.7-75-75-75-75-75 75-75 75-75-75-75-75-75 75-75 75-41.7-41.7L16.5 333l8.3-8.2 8.2-8.3L66.5 350l33.5 33.5 74.8-74.8c41.1-41.1 74.9-74.7 75.2-74.7.3 0 34.1 33.6 75.2 74.7zm0 75l74.8 74.8 75-75 75-75 75 75 75 75 33.5-33.5 33.5-33.5 8.2 8.3 8.3 8.2-41.8 41.8-41.7 41.7-75-75-75-75-75 75-75 75-75-75-75-75-75 75-75 75-41.7-41.7L16.5 408l8.3-8.2 8.2-8.3L66.5 425l33.5 33.5 74.8-74.8c41.1-41.1 74.9-74.7 75.2-74.7.3 0 34.1 33.6 75.2 74.7zm0 75l74.8 74.8 75-75 75-75 75 75 75 75 33.5-33.5 33.5-33.5 8.2 8.3 8.3 8.2-41.8 41.8-41.7 41.7-75-75-75-75-75 75-75 75-75-75-75-75-75 75-75 75-41.7-41.7L16.5 483l8.3-8.2 8.2-8.3L66.5 500l33.5 33.5 74.8-74.8c41.1-41.1 74.9-74.7 75.2-74.7.3 0 34.1 33.6 75.2 74.7z"/></svg>